<mxfile host="app.diagrams.net" modified="2023-05-19T09:40:41.261Z" agent="5.0 (Windows NT 10.0; Win64; x64) AppleWebKit/537.36 (KHTML, like Gecko) Chrome/113.0.0.0 Safari/537.36" version="20.7.2" etag="kI_bI7yLsrDjXTSgGb8V" type="github">
  <diagram id="rZoWJl6Y81mEz3W60F09" name="Страница 1">
    <mxGraphModel dx="1050" dy="562" grid="1" gridSize="10" guides="1" tooltips="1" connect="1" arrows="1" fold="1" page="1" pageScale="1" pageWidth="827" pageHeight="1169" math="0" shadow="0">
      <root>
        <mxCell id="0" />
        <mxCell id="1" parent="0" />
        <mxCell id="y5xBiELcugOCsO-l4_NQ-1" value="Новий працівнк" style="shape=umlActor;verticalLabelPosition=bottom;verticalAlign=top;html=1;outlineConnect=0;fillColor=#f8cecc;strokeColor=#b85450;perimeter=rectanglePerimeter;labelPosition=center;align=center;" vertex="1" parent="1">
          <mxGeometry x="120" y="440" width="40" height="80" as="geometry" />
        </mxCell>
        <mxCell id="y5xBiELcugOCsO-l4_NQ-2" value="" style="endArrow=classic;html=1;rounded=0;exitX=1;exitY=0.3333333333333333;exitDx=0;exitDy=0;exitPerimeter=0;" edge="1" parent="1" target="y5xBiELcugOCsO-l4_NQ-3" source="y5xBiELcugOCsO-l4_NQ-1">
          <mxGeometry width="50" height="50" relative="1" as="geometry">
            <mxPoint x="200" y="576.6666666666667" as="sourcePoint" />
            <mxPoint x="260" y="500" as="targetPoint" />
            <Array as="points" />
          </mxGeometry>
        </mxCell>
        <mxCell id="y5xBiELcugOCsO-l4_NQ-3" value="Реєстрація" style="ellipse;whiteSpace=wrap;html=1;" vertex="1" parent="1">
          <mxGeometry x="210" y="420" width="90" height="60" as="geometry" />
        </mxCell>
        <mxCell id="y5xBiELcugOCsO-l4_NQ-4" value="" style="endArrow=classic;html=1;rounded=0;exitX=1;exitY=0.5;exitDx=0;exitDy=0;" edge="1" parent="1" target="y5xBiELcugOCsO-l4_NQ-5" source="y5xBiELcugOCsO-l4_NQ-3">
          <mxGeometry width="50" height="50" relative="1" as="geometry">
            <mxPoint x="300" y="466.66666666666674" as="sourcePoint" />
            <mxPoint x="400" y="500" as="targetPoint" />
            <Array as="points" />
          </mxGeometry>
        </mxCell>
        <mxCell id="y5xBiELcugOCsO-l4_NQ-5" value="Заповнення даних" style="ellipse;whiteSpace=wrap;html=1;" vertex="1" parent="1">
          <mxGeometry x="350" y="420" width="90" height="60" as="geometry" />
        </mxCell>
        <mxCell id="y5xBiELcugOCsO-l4_NQ-7" value="" style="endArrow=classic;html=1;rounded=0;" edge="1" parent="1" target="y5xBiELcugOCsO-l4_NQ-8" source="y5xBiELcugOCsO-l4_NQ-5">
          <mxGeometry width="50" height="50" relative="1" as="geometry">
            <mxPoint x="440" y="450" as="sourcePoint" />
            <mxPoint x="540" y="500" as="targetPoint" />
            <Array as="points" />
          </mxGeometry>
        </mxCell>
        <mxCell id="y5xBiELcugOCsO-l4_NQ-8" value="Вибір ролі" style="ellipse;whiteSpace=wrap;html=1;" vertex="1" parent="1">
          <mxGeometry x="490" y="420" width="90" height="60" as="geometry" />
        </mxCell>
        <mxCell id="y5xBiELcugOCsO-l4_NQ-9" value="" style="endArrow=classic;html=1;rounded=0;" edge="1" parent="1" target="y5xBiELcugOCsO-l4_NQ-10" source="y5xBiELcugOCsO-l4_NQ-8">
          <mxGeometry width="50" height="50" relative="1" as="geometry">
            <mxPoint x="580" y="450" as="sourcePoint" />
            <mxPoint x="680" y="500" as="targetPoint" />
            <Array as="points" />
          </mxGeometry>
        </mxCell>
        <mxCell id="y5xBiELcugOCsO-l4_NQ-10" value="Генерація ключа (Id)&lt;span style=&quot;color: rgba(0, 0, 0, 0); font-family: monospace; font-size: 0px; text-align: start;&quot;&gt;%3CmxGraphModel%3E%3Croot%3E%3CmxCell%20id%3D%220%22%2F%3E%3CmxCell%20id%3D%221%22%20parent%3D%220%22%2F%3E%3CmxCell%20id%3D%222%22%20value%3D%22%22%20style%3D%22endArrow%3Dclassic%3Bhtml%3D1%3Brounded%3D0%3BexitX%3D1%3BexitY%3D0.5%3BexitDx%3D0%3BexitDy%3D0%3B%22%20edge%3D%221%22%20target%3D%223%22%20parent%3D%221%22%3E%3CmxGeometry%20width%3D%2250%22%20height%3D%2250%22%20relative%3D%221%22%20as%3D%22geometry%22%3E%3CmxPoint%20x%3D%22300%22%20y%3D%22450%22%20as%3D%22sourcePoint%22%2F%3E%3CmxPoint%20x%3D%22400%22%20y%3D%22500%22%20as%3D%22targetPoint%22%2F%3E%3CArray%20as%3D%22points%22%2F%3E%3C%2FmxGeometry%3E%3C%2FmxCell%3E%3CmxCell%20id%3D%223%22%20value%3D%22%D0%A0%D0%B5%D1%94%D1%81%D1%82%D1%80%D0%B0%D1%86%D1%96%D1%8F%22%20style%3D%22ellipse%3BwhiteSpace%3Dwrap%3Bhtml%3D1%3B%22%20vertex%3D%221%22%20parent%3D%221%22%3E%3CmxGeometry%20x%3D%22350%22%20y%3D%22420%22%20width%3D%2290%22%20height%3D%2260%22%20as%3D%22geometry%22%2F%3E%3C%2FmxCell%3E%3C%2Froot%3E%3C%2FmxGraphModel%3E&lt;/span&gt;" style="ellipse;whiteSpace=wrap;html=1;" vertex="1" parent="1">
          <mxGeometry x="630" y="420" width="90" height="60" as="geometry" />
        </mxCell>
        <mxCell id="y5xBiELcugOCsO-l4_NQ-11" value="" style="endArrow=classic;html=1;rounded=0;" edge="1" parent="1" target="y5xBiELcugOCsO-l4_NQ-12" source="y5xBiELcugOCsO-l4_NQ-10">
          <mxGeometry width="50" height="50" relative="1" as="geometry">
            <mxPoint x="720" y="450" as="sourcePoint" />
            <mxPoint x="820" y="500" as="targetPoint" />
            <Array as="points" />
          </mxGeometry>
        </mxCell>
        <mxCell id="y5xBiELcugOCsO-l4_NQ-12" value="Валідація даних" style="ellipse;whiteSpace=wrap;html=1;" vertex="1" parent="1">
          <mxGeometry x="770" y="420" width="90" height="60" as="geometry" />
        </mxCell>
        <mxCell id="y5xBiELcugOCsO-l4_NQ-13" value="" style="endArrow=classic;html=1;rounded=0;exitX=0;exitY=0.5;exitDx=0;exitDy=0;entryX=0.5;entryY=1;entryDx=0;entryDy=0;" edge="1" parent="1" target="y5xBiELcugOCsO-l4_NQ-5" source="y5xBiELcugOCsO-l4_NQ-14">
          <mxGeometry width="50" height="50" relative="1" as="geometry">
            <mxPoint x="340" y="490" as="sourcePoint" />
            <mxPoint x="440" y="540" as="targetPoint" />
            <Array as="points" />
          </mxGeometry>
        </mxCell>
        <mxCell id="y5xBiELcugOCsO-l4_NQ-14" value="Реєстрація" style="ellipse;whiteSpace=wrap;html=1;" vertex="1" parent="1">
          <mxGeometry x="530" y="510" width="90" height="60" as="geometry" />
        </mxCell>
        <mxCell id="y5xBiELcugOCsO-l4_NQ-15" value="" style="endArrow=classic;html=1;rounded=0;exitX=0;exitY=1;exitDx=0;exitDy=0;" edge="1" parent="1" target="y5xBiELcugOCsO-l4_NQ-16" source="y5xBiELcugOCsO-l4_NQ-12">
          <mxGeometry width="50" height="50" relative="1" as="geometry">
            <mxPoint x="350" y="500" as="sourcePoint" />
            <mxPoint x="450" y="550" as="targetPoint" />
            <Array as="points" />
          </mxGeometry>
        </mxCell>
        <mxCell id="y5xBiELcugOCsO-l4_NQ-16" value="Невдала реєстрація" style="ellipse;whiteSpace=wrap;html=1;" vertex="1" parent="1">
          <mxGeometry x="700" y="510" width="90" height="60" as="geometry" />
        </mxCell>
        <mxCell id="y5xBiELcugOCsO-l4_NQ-17" value="" style="endArrow=classic;html=1;rounded=0;exitX=1;exitY=1;exitDx=0;exitDy=0;" edge="1" parent="1" target="y5xBiELcugOCsO-l4_NQ-18" source="y5xBiELcugOCsO-l4_NQ-12">
          <mxGeometry width="50" height="50" relative="1" as="geometry">
            <mxPoint x="827" y="540" as="sourcePoint" />
            <mxPoint x="927" y="590" as="targetPoint" />
            <Array as="points" />
          </mxGeometry>
        </mxCell>
        <mxCell id="y5xBiELcugOCsO-l4_NQ-18" value="Успішна реєстрація" style="ellipse;whiteSpace=wrap;html=1;" vertex="1" parent="1">
          <mxGeometry x="877" y="510" width="90" height="60" as="geometry" />
        </mxCell>
        <mxCell id="y5xBiELcugOCsO-l4_NQ-19" value="" style="endArrow=classic;html=1;rounded=0;exitX=0;exitY=0.5;exitDx=0;exitDy=0;entryX=1;entryY=0.5;entryDx=0;entryDy=0;" edge="1" parent="1" source="y5xBiELcugOCsO-l4_NQ-16" target="y5xBiELcugOCsO-l4_NQ-14">
          <mxGeometry width="50" height="50" relative="1" as="geometry">
            <mxPoint x="560" y="510" as="sourcePoint" />
            <mxPoint x="610" y="460" as="targetPoint" />
          </mxGeometry>
        </mxCell>
      </root>
    </mxGraphModel>
  </diagram>
</mxfile>
